<svg width="60" height="48" viewBox="0 0 60 48" fill="none" xmlns="http://www.w3.org/2000/svg">
<g clip-path="url(#clip0_204_244)">
<path d="M9 12C9 8.8174 10.2643 5.76516 12.5147 3.51472C14.7652 1.26428 17.8174 0 21 0C24.1826 0 27.2348 1.26428 29.4853 3.51472C31.7357 5.76516 33 8.8174 33 12C33 15.1826 31.7357 18.2348 29.4853 20.4853C27.2348 22.7357 24.1826 24 21 24C17.8174 24 14.7652 22.7357 12.5147 20.4853C10.2643 18.2348 9 15.1826 9 12ZM0 45.2156C0 35.9812 7.48125 28.5 16.7156 28.5H25.2844C34.5188 28.5 42 35.9812 42 45.2156C42 46.7531 40.7531 48 39.2156 48H2.78438C1.24688 48 0 46.7531 0 45.2156ZM57.1219 48H44.2031C44.7094 47.1188 45.0094 46.0969 45.0094 45V44.25C45.0094 38.5594 42.4688 33.45 38.4656 30.0188C38.6906 30.0094 38.9062 30 39.1312 30H44.8875C53.2312 30 60 36.7687 60 45.1219C60 46.7156 58.7062 48 57.1219 48ZM40.5 24C37.5938 24 34.9688 22.8188 33.0656 20.9156C34.9125 18.4219 36 15.3375 36 12C36 9.4875 35.3813 7.11563 34.2844 5.03438C36.0281 3.75938 38.175 3 40.5 3C46.3031 3 51 7.69687 51 13.5C51 19.3031 46.3031 24 40.5 24Z" fill="#5F27CD"/>
</g>
<defs>
<clipPath id="clip0_204_244">
<rect width="60" height="48" fill="white"/>
</clipPath>
</defs>
</svg>
