<svg width="50" height="76" viewBox="0 0 50 76" fill="none" xmlns="http://www.w3.org/2000/svg">
<path d="M36.3636 56.3686C37.7273 51.6859 40.554 47.6931 43.3523 43.715C44.0909 42.6728 44.8295 41.6306 45.5398 40.5736C48.3523 36.39 50 31.3257 50 25.8503C50 11.5673 38.8068 0 25 0C11.1932 0 0 11.5673 0 25.8356C0 31.311 1.64773 36.39 4.46023 40.559C5.17045 41.6159 5.90909 42.6581 6.64773 43.7003C9.46023 47.6784 12.2869 51.6859 13.6364 56.3539H36.3636V56.3686ZM25 75.1581C31.2784 75.1581 36.3636 69.9029 36.3636 63.4147V61.066H13.6364V63.4147C13.6364 69.9029 18.7216 75.1581 25 75.1581ZM13.6364 25.8356C13.6364 27.1274 12.6136 28.1843 11.3636 28.1843C10.1136 28.1843 9.09091 27.1274 9.09091 25.8356C9.09091 16.7491 16.2074 9.39477 25 9.39477C26.25 9.39477 27.2727 10.4517 27.2727 11.7435C27.2727 13.0352 26.25 14.0921 25 14.0921C18.7216 14.0921 13.6364 19.3473 13.6364 25.8356Z" fill="#FECA57"/>
</svg>
