<svg width="146" height="21" viewBox="0 0 146 21" fill="none" xmlns="http://www.w3.org/2000/svg">
<path d="M3.70822 16.264C3.31622 16.264 2.95222 16.176 2.61622 16C2.28022 15.824 1.97222 15.564 1.69222 15.22C1.42022 14.868 1.18022 14.44 0.972217 13.936C0.900217 13.704 0.828217 13.432 0.756217 13.12C0.692217 12.8 0.628217 12.452 0.564217 12.076C0.508217 11.7 0.456217 11.316 0.408217 10.924C0.360217 10.524 0.320217 10.128 0.288217 9.736C0.256217 9.336 0.228217 8.956 0.204217 8.596C0.188217 8.236 0.180217 7.908 0.180217 7.612C0.180217 6.116 0.388217 4.932 0.804217 4.06C1.22022 3.18 1.88422 2.556 2.79622 2.188C3.71622 1.812 4.91622 1.624 6.39622 1.624C7.43622 1.624 8.42822 1.716 9.37222 1.9C10.3162 2.084 11.1562 2.38 11.8922 2.788C12.6282 3.188 13.2082 3.712 13.6322 4.36C14.0562 5 14.2682 5.78 14.2682 6.7C14.2682 7.396 14.1322 8.008 13.8602 8.536C13.5882 9.056 13.2042 9.496 12.7082 9.856C12.2202 10.208 11.6362 10.48 10.9562 10.672C10.2762 10.864 9.53622 10.976 8.73622 11.008C8.20822 11.032 7.71622 11.02 7.26022 10.972C6.81222 10.916 6.38822 10.888 5.98822 10.888C5.74022 10.888 5.58422 10.98 5.52022 11.164C5.46422 11.34 5.43622 11.58 5.43622 11.884C5.43622 12.012 5.43622 12.156 5.43622 12.316C5.44422 12.476 5.45222 12.648 5.46022 12.832C5.46822 13.008 5.47622 13.184 5.48422 13.36C5.50022 13.536 5.50822 13.704 5.50822 13.864C5.51622 14.016 5.52022 14.152 5.52022 14.272C5.52022 14.928 5.37222 15.424 5.07622 15.76C4.78822 16.096 4.33222 16.264 3.70822 16.264ZM6.07222 8.5C6.45622 8.5 6.84022 8.48 7.22422 8.44C7.60822 8.392 7.97222 8.324 8.31622 8.236C8.66022 8.14 8.96422 8.016 9.22822 7.864C9.49222 7.704 9.70022 7.512 9.85222 7.288C10.0042 7.064 10.0802 6.804 10.0802 6.508C10.0802 6.18 10.0082 5.9 9.86422 5.668C9.72822 5.436 9.54822 5.244 9.32422 5.092C9.10022 4.932 8.85622 4.808 8.59222 4.72C8.32822 4.624 8.06422 4.556 7.80022 4.516C7.54422 4.476 7.31622 4.456 7.11622 4.456C6.75622 4.456 6.44022 4.484 6.16822 4.54C5.90422 4.596 5.68022 4.684 5.49622 4.804C5.32022 4.924 5.18822 5.08 5.10022 5.272C5.02022 5.464 4.98022 5.696 4.98022 5.968C4.98022 6.304 4.99222 6.608 5.01622 6.88C5.04022 7.152 5.07622 7.392 5.12422 7.6C5.18022 7.8 5.24822 7.968 5.32822 8.104C5.41622 8.232 5.52022 8.332 5.64022 8.404C5.76822 8.468 5.91222 8.5 6.07222 8.5ZM22.4387 16.948C21.0547 16.948 19.8467 16.736 18.8147 16.312C17.7907 15.888 16.9947 15.24 16.4267 14.368C15.8587 13.496 15.5747 12.388 15.5747 11.044C15.5747 9.94 15.7627 8.972 16.1387 8.14C16.5147 7.3 17.0307 6.596 17.6867 6.028C18.3507 5.46 19.1187 5.036 19.9907 4.756C20.8627 4.468 21.7907 4.324 22.7747 4.324C23.4467 4.324 24.0987 4.388 24.7307 4.516C25.3627 4.636 25.9307 4.836 26.4347 5.116C26.9387 5.388 27.3387 5.748 27.6347 6.196C27.9307 6.636 28.0787 7.172 28.0787 7.804C28.0787 8.364 27.9707 8.832 27.7547 9.208C27.5387 9.584 27.2427 9.892 26.8667 10.132C26.4987 10.364 26.0747 10.548 25.5947 10.684C25.1227 10.82 24.6187 10.932 24.0827 11.02C23.7547 11.108 23.3467 11.192 22.8587 11.272C22.3707 11.344 21.8907 11.4 21.4187 11.44C20.9467 11.48 20.5587 11.5 20.2547 11.5C20.0147 11.5 19.8467 11.532 19.7507 11.596C19.6547 11.652 19.6067 11.76 19.6067 11.92C19.6067 12.064 19.6467 12.232 19.7267 12.424C19.8067 12.608 19.9227 12.784 20.0747 12.952C20.3387 13.256 20.6507 13.46 21.0107 13.564C21.3787 13.668 21.8227 13.72 22.3427 13.72C22.8867 13.72 23.4227 13.644 23.9507 13.492C24.4867 13.332 25.0027 13.176 25.4987 13.024C26.0027 12.872 26.4907 12.796 26.9627 12.796C27.4347 12.796 27.8107 12.884 28.0907 13.06C28.3787 13.236 28.5227 13.58 28.5227 14.092C28.5227 14.54 28.3587 14.94 28.0307 15.292C27.7027 15.644 27.2547 15.944 26.6867 16.192C26.1267 16.44 25.4787 16.628 24.7427 16.756C24.0147 16.884 23.2467 16.948 22.4387 16.948ZM21.6707 9.724C22.1347 9.724 22.5827 9.672 23.0147 9.568C23.4467 9.464 23.8027 9.292 24.0827 9.052C24.3627 8.812 24.5027 8.492 24.5027 8.092C24.5027 7.604 24.3227 7.256 23.9627 7.048C23.6107 6.832 23.1387 6.724 22.5467 6.724C22.1867 6.724 21.8347 6.788 21.4907 6.916C21.1547 7.036 20.8507 7.204 20.5787 7.42C20.3067 7.636 20.0867 7.884 19.9187 8.164C19.7587 8.444 19.6787 8.744 19.6787 9.064C19.6787 9.264 19.7467 9.412 19.8827 9.508C20.0187 9.596 20.2347 9.656 20.5307 9.688C20.8267 9.712 21.2067 9.724 21.6707 9.724ZM33.7356 16.408C33.3996 16.408 33.0996 16.36 32.8356 16.264C32.5716 16.168 32.3396 16.032 32.1396 15.856C31.9396 15.672 31.7596 15.46 31.5996 15.22C31.4156 14.916 31.2516 14.572 31.1076 14.188C30.9716 13.804 30.8556 13.4 30.7596 12.976C30.6636 12.544 30.5876 12.112 30.5316 11.68C30.4836 11.24 30.4596 10.816 30.4596 10.408C30.4596 9.08 30.7356 7.952 31.2876 7.024C31.8396 6.096 32.6156 5.388 33.6156 4.9C34.6236 4.412 35.8076 4.168 37.1676 4.168C37.7916 4.168 38.3956 4.22 38.9796 4.324C39.5716 4.42 40.0996 4.572 40.5636 4.78C41.0356 4.98 41.4116 5.232 41.6916 5.536C41.9716 5.84 42.1116 6.2 42.1116 6.616C42.1116 7 42.0316 7.304 41.8716 7.528C41.7196 7.744 41.5196 7.896 41.2716 7.984C41.0236 8.072 40.7636 8.116 40.4916 8.116C40.0516 8.116 39.6196 8.06 39.1956 7.948C38.7796 7.828 38.2716 7.768 37.6716 7.768C36.8956 7.768 36.2996 8 35.8836 8.464C35.4756 8.928 35.2716 9.588 35.2716 10.444C35.2716 10.764 35.2836 11.08 35.3076 11.392C35.3396 11.696 35.3796 11.988 35.4276 12.268C35.4756 12.548 35.5196 12.816 35.5596 13.072C35.6076 13.328 35.6476 13.564 35.6796 13.78C35.7116 13.988 35.7276 14.172 35.7276 14.332C35.7276 15.036 35.5676 15.56 35.2476 15.904C34.9276 16.24 34.4236 16.408 33.7356 16.408ZM49.6452 16.684C49.0452 16.684 48.5892 16.588 48.2772 16.396C47.9732 16.204 47.7492 15.908 47.6052 15.508C47.5572 15.316 47.5092 15.08 47.4612 14.8C47.4132 14.52 47.3612 14.212 47.3052 13.876C47.2572 13.532 47.2092 13.184 47.1612 12.832C47.1212 12.48 47.0812 12.14 47.0412 11.812C47.0012 11.484 46.9692 11.192 46.9452 10.936C46.9212 10.704 46.8532 10.548 46.7412 10.468C46.6292 10.388 46.4852 10.348 46.3092 10.348C46.1972 10.348 46.0572 10.364 45.8892 10.396C45.7212 10.42 45.5132 10.456 45.2652 10.504C45.0092 10.568 44.7892 10.62 44.6052 10.66C44.4292 10.7 44.2732 10.72 44.1372 10.72C43.9212 10.72 43.7332 10.668 43.5732 10.564C43.4132 10.46 43.2932 10.32 43.2132 10.144C43.1332 9.968 43.0932 9.776 43.0932 9.568C43.0932 9.328 43.1732 9.096 43.3332 8.872C43.5012 8.648 43.7772 8.452 44.1612 8.284C44.3132 8.22 44.5212 8.148 44.7852 8.068C45.0572 7.98 45.3452 7.896 45.6492 7.816C45.9532 7.728 46.2252 7.66 46.4652 7.612C46.5852 7.58 46.6652 7.516 46.7052 7.42C46.7452 7.316 46.7652 7.176 46.7652 7C46.7652 6.784 46.7412 6.552 46.6932 6.304C46.6532 6.048 46.6092 5.776 46.5612 5.488C46.5212 5.2 46.5012 4.896 46.5012 4.576C46.5012 3.704 46.7052 2.976 47.1132 2.392C47.5212 1.8 48.0852 1.36 48.8052 1.072C49.5252 0.776 50.3532 0.628 51.2892 0.628C51.6732 0.628 52.0532 0.656 52.4292 0.711999C52.8052 0.76 53.1452 0.844 53.4492 0.964C53.7612 1.084 54.0092 1.24 54.1932 1.432C54.3772 1.616 54.4692 1.84 54.4692 2.104C54.4692 2.288 54.4212 2.452 54.3252 2.596C54.2372 2.74 54.0972 2.86 53.9052 2.956C53.7532 3.012 53.5612 3.052 53.3292 3.076C53.1052 3.092 52.8452 3.104 52.5492 3.112C51.8372 3.12 51.3292 3.296 51.0252 3.64C50.7212 3.976 50.5692 4.444 50.5692 5.044C50.5692 5.14 50.5732 5.24 50.5812 5.344C50.5892 5.44 50.5972 5.54 50.6052 5.644C50.6212 5.74 50.6332 5.832 50.6412 5.92C50.6812 6.104 50.7372 6.236 50.8092 6.316C50.8812 6.396 50.9852 6.436 51.1212 6.436C51.2252 6.436 51.3852 6.408 51.6012 6.352C51.8252 6.296 52.0852 6.216 52.3812 6.112C52.5812 6.048 52.7812 5.988 52.9812 5.932C53.1892 5.876 53.3772 5.828 53.5452 5.788C53.7212 5.748 53.8572 5.728 53.9532 5.728C54.2572 5.728 54.4932 5.832 54.6612 6.04C54.8292 6.24 54.9132 6.492 54.9132 6.796C54.9132 7.1 54.8492 7.364 54.7212 7.588C54.6012 7.804 54.3692 8.016 54.0252 8.224C53.8092 8.36 53.5412 8.496 53.2212 8.632C52.9012 8.768 52.5092 8.92 52.0452 9.088C51.6772 9.232 51.4212 9.42 51.2772 9.652C51.1412 9.884 51.0732 10.164 51.0732 10.492C51.0732 10.732 51.0812 11.02 51.0972 11.356C51.1212 11.692 51.1412 12.052 51.1572 12.436C51.1812 12.812 51.1972 13.184 51.2052 13.552C51.2212 13.92 51.2252 14.264 51.2172 14.584C51.2172 14.904 51.1972 15.172 51.1572 15.388C51.0612 15.828 50.8932 16.152 50.6532 16.36C50.4212 16.576 50.0852 16.684 49.6452 16.684ZM63.19 16.948C61.806 16.948 60.598 16.736 59.566 16.312C58.542 15.888 57.746 15.24 57.178 14.368C56.61 13.496 56.326 12.388 56.326 11.044C56.326 9.94 56.514 8.972 56.89 8.14C57.266 7.3 57.782 6.596 58.438 6.028C59.102 5.46 59.87 5.036 60.742 4.756C61.614 4.468 62.542 4.324 63.526 4.324C64.198 4.324 64.85 4.388 65.482 4.516C66.114 4.636 66.682 4.836 67.186 5.116C67.69 5.388 68.09 5.748 68.386 6.196C68.682 6.636 68.83 7.172 68.83 7.804C68.83 8.364 68.722 8.832 68.506 9.208C68.29 9.584 67.994 9.892 67.618 10.132C67.25 10.364 66.826 10.548 66.346 10.684C65.874 10.82 65.37 10.932 64.834 11.02C64.506 11.108 64.098 11.192 63.61 11.272C63.122 11.344 62.642 11.4 62.17 11.44C61.698 11.48 61.31 11.5 61.006 11.5C60.766 11.5 60.598 11.532 60.502 11.596C60.406 11.652 60.358 11.76 60.358 11.92C60.358 12.064 60.398 12.232 60.478 12.424C60.558 12.608 60.674 12.784 60.826 12.952C61.09 13.256 61.402 13.46 61.762 13.564C62.13 13.668 62.574 13.72 63.094 13.72C63.638 13.72 64.174 13.644 64.702 13.492C65.238 13.332 65.754 13.176 66.25 13.024C66.754 12.872 67.242 12.796 67.714 12.796C68.186 12.796 68.562 12.884 68.842 13.06C69.13 13.236 69.274 13.58 69.274 14.092C69.274 14.54 69.11 14.94 68.782 15.292C68.454 15.644 68.006 15.944 67.438 16.192C66.878 16.44 66.23 16.628 65.494 16.756C64.766 16.884 63.998 16.948 63.19 16.948ZM62.422 9.724C62.886 9.724 63.334 9.672 63.766 9.568C64.198 9.464 64.554 9.292 64.834 9.052C65.114 8.812 65.254 8.492 65.254 8.092C65.254 7.604 65.074 7.256 64.714 7.048C64.362 6.832 63.89 6.724 63.298 6.724C62.938 6.724 62.586 6.788 62.242 6.916C61.906 7.036 61.602 7.204 61.33 7.42C61.058 7.636 60.838 7.884 60.67 8.164C60.51 8.444 60.43 8.744 60.43 9.064C60.43 9.264 60.498 9.412 60.634 9.508C60.77 9.596 60.986 9.656 61.282 9.688C61.578 9.712 61.958 9.724 62.422 9.724ZM78.0148 16.828C77.0228 16.828 76.0868 16.704 75.2068 16.456C74.3348 16.216 73.5628 15.84 72.8908 15.328C72.2188 14.816 71.6908 14.168 71.3068 13.384C70.9228 12.592 70.7308 11.652 70.7308 10.564C70.7308 9.428 70.8988 8.428 71.2348 7.564C71.5788 6.692 72.0748 5.96 72.7228 5.368C73.3788 4.768 74.1668 4.316 75.0868 4.012C76.0148 3.708 77.0628 3.556 78.2308 3.556C79.1508 3.556 79.9148 3.652 80.5228 3.844C81.1388 4.036 81.6028 4.284 81.9148 4.588C82.2268 4.884 82.3828 5.204 82.3828 5.548C82.3828 5.796 82.3188 6.02 82.1908 6.22C82.0628 6.42 81.8948 6.58 81.6868 6.7C81.4868 6.812 81.2748 6.868 81.0508 6.868C80.8348 6.868 80.6188 6.836 80.4028 6.772C80.1868 6.7 79.9268 6.632 79.6228 6.568C79.3268 6.504 78.9428 6.472 78.4708 6.472C77.9748 6.472 77.5228 6.552 77.1148 6.712C76.7148 6.872 76.3628 7.1 76.0588 7.396C75.7628 7.692 75.5308 8.044 75.3628 8.452C75.2028 8.86 75.1228 9.312 75.1228 9.808C75.1228 10.512 75.2548 11.096 75.5188 11.56C75.7828 12.024 76.1508 12.372 76.6228 12.604C77.0948 12.828 77.6428 12.94 78.2668 12.94C78.7868 12.94 79.2548 12.892 79.6708 12.796C80.0868 12.692 80.4548 12.572 80.7748 12.436C81.0948 12.3 81.3708 12.18 81.6028 12.076C81.8348 11.972 82.0268 11.92 82.1788 11.92C82.5628 11.92 82.8628 12.008 83.0788 12.184C83.2948 12.352 83.4468 12.564 83.5348 12.82C83.6228 13.068 83.6668 13.312 83.6668 13.552C83.6668 14.04 83.5268 14.484 83.2468 14.884C82.9748 15.284 82.5868 15.632 82.0828 15.928C81.5788 16.216 80.9788 16.436 80.2828 16.588C79.5948 16.748 78.8388 16.828 78.0148 16.828ZM91.5208 16.288C90.9208 16.288 90.3448 16.204 89.7928 16.036C89.2408 15.868 88.7848 15.588 88.4248 15.196C88.0728 14.796 87.8768 14.248 87.8368 13.552C87.8288 13.344 87.8168 13.12 87.8008 12.88C87.7928 12.632 87.7848 12.376 87.7768 12.112C87.7688 11.84 87.7608 11.564 87.7528 11.284C87.7528 11.004 87.7488 10.724 87.7408 10.444C87.7408 10.156 87.7408 9.876 87.7408 9.604C87.7328 9.252 87.6448 9.024 87.4768 8.92C87.3168 8.808 87.0968 8.736 86.8168 8.704C86.6568 8.688 86.4728 8.676 86.2648 8.668C86.0648 8.652 85.8568 8.636 85.6408 8.62C85.4328 8.604 85.2288 8.584 85.0288 8.56C84.6448 8.52 84.3448 8.372 84.1288 8.116C83.9128 7.852 83.8048 7.488 83.8048 7.024C83.8048 6.704 83.8688 6.456 83.9968 6.28C84.1248 6.104 84.2968 5.976 84.5128 5.896C84.7288 5.808 84.9688 5.736 85.2328 5.68C85.6088 5.632 85.9328 5.588 86.2048 5.548C86.4848 5.5 86.7368 5.456 86.9608 5.416C87.1928 5.376 87.3728 5.304 87.5008 5.2C87.6368 5.088 87.7208 4.9 87.7528 4.636C87.7768 4.452 87.7968 4.264 87.8128 4.072C87.8368 3.872 87.8608 3.676 87.8848 3.484C87.9088 3.292 87.9408 3.124 87.9808 2.98C88.1168 2.54 88.3008 2.224 88.5328 2.032C88.7648 1.84 89.1328 1.744 89.6368 1.744C90.0368 1.744 90.3528 1.796 90.5848 1.9C90.8168 1.996 90.9968 2.152 91.1248 2.368C91.2528 2.584 91.3528 2.868 91.4248 3.22C91.4568 3.436 91.4808 3.624 91.4968 3.784C91.5208 3.944 91.5408 4.092 91.5568 4.228C91.5728 4.364 91.5888 4.496 91.6048 4.624C91.6208 4.752 91.6368 4.884 91.6528 5.02C91.6848 5.26 91.7768 5.44 91.9288 5.56C92.0888 5.672 92.2888 5.748 92.5288 5.788C92.7368 5.812 92.9488 5.84 93.1648 5.872C93.3808 5.896 93.5888 5.92 93.7888 5.944C93.9968 5.968 94.1888 5.992 94.3648 6.016C94.7488 6.072 95.0888 6.2 95.3848 6.4C95.6808 6.592 95.8288 6.916 95.8288 7.372C95.8288 7.78 95.7088 8.112 95.4688 8.368C95.2288 8.616 94.9168 8.756 94.5328 8.788C94.1248 8.812 93.7408 8.828 93.3808 8.836C93.0208 8.844 92.7288 8.856 92.5048 8.872C92.3288 8.888 92.1768 8.948 92.0488 9.052C91.9208 9.148 91.8448 9.36 91.8208 9.688C91.8128 9.896 91.8088 10.112 91.8088 10.336C91.8088 10.56 91.8088 10.784 91.8088 11.008C91.8168 11.232 91.8208 11.452 91.8208 11.668C91.8288 11.884 91.8408 12.092 91.8568 12.292C91.8728 12.484 91.8888 12.664 91.9048 12.832C91.9448 13.184 92.0368 13.432 92.1808 13.576C92.3328 13.72 92.5728 13.792 92.9008 13.792C93.1808 13.792 93.4088 13.736 93.5848 13.624C93.7688 13.512 93.9328 13.404 94.0768 13.3C94.2288 13.188 94.4008 13.132 94.5928 13.132C94.8728 13.132 95.0728 13.208 95.1928 13.36C95.3128 13.504 95.3728 13.72 95.3728 14.008C95.3728 14.344 95.2568 14.652 95.0248 14.932C94.7928 15.212 94.4888 15.452 94.1128 15.652C93.7368 15.852 93.3208 16.008 92.8648 16.12C92.4168 16.232 91.9688 16.288 91.5208 16.288ZM101.601 16.336C100.849 16.336 100.241 16.232 99.7768 16.024C99.3208 15.816 98.9728 15.504 98.7328 15.088C98.5008 14.664 98.3328 14.124 98.2288 13.468C98.1408 12.972 98.0808 12.404 98.0488 11.764C98.0168 11.124 98.0008 10.42 98.0008 9.652C98.0008 8.628 98.0248 7.676 98.0728 6.796C98.1288 5.908 98.2408 5.12 98.4088 4.432C98.6488 3.464 99.0488 2.704 99.6088 2.152C100.169 1.592 100.997 1.312 102.093 1.312C103.341 1.312 104.521 1.468 105.633 1.78C106.753 2.092 107.773 2.512 108.693 3.04C109.621 3.568 110.421 4.168 111.093 4.84C111.765 5.504 112.285 6.2 112.653 6.928C113.021 7.656 113.205 8.368 113.205 9.064C113.205 9.856 113.009 10.612 112.617 11.332C112.225 12.052 111.673 12.716 110.961 13.324C110.257 13.932 109.421 14.46 108.453 14.908C107.493 15.356 106.433 15.708 105.273 15.964C104.113 16.212 102.889 16.336 101.601 16.336ZM103.593 12.052C104.233 12.052 104.809 11.984 105.321 11.848C105.841 11.712 106.297 11.528 106.689 11.296C107.081 11.064 107.409 10.804 107.673 10.516C107.945 10.22 108.149 9.916 108.285 9.604C108.421 9.292 108.489 8.988 108.489 8.692C108.489 8.428 108.409 8.148 108.249 7.852C108.097 7.548 107.873 7.256 107.577 6.976C107.289 6.688 106.937 6.428 106.521 6.196C106.105 5.964 105.637 5.78 105.117 5.644C104.605 5.5 104.045 5.428 103.437 5.428C103.229 5.428 103.061 5.508 102.933 5.668C102.805 5.82 102.705 6.036 102.633 6.316C102.577 6.548 102.533 6.816 102.501 7.12C102.477 7.416 102.465 7.736 102.465 8.08C102.465 8.768 102.477 9.364 102.501 9.868C102.525 10.372 102.577 10.784 102.657 11.104C102.809 11.736 103.121 12.052 103.593 12.052ZM120.229 17.392C119.557 17.392 118.905 17.328 118.273 17.2C117.641 17.08 117.077 16.876 116.581 16.588C116.085 16.3 115.689 15.92 115.393 15.448C115.097 14.968 114.949 14.384 114.949 13.696C114.949 12.976 115.129 12.38 115.489 11.908C115.857 11.428 116.349 11.052 116.965 10.78C117.581 10.508 118.277 10.316 119.053 10.204C119.837 10.084 120.645 10.024 121.477 10.024C121.701 10.024 121.925 10.032 122.149 10.048C122.381 10.064 122.593 10.08 122.785 10.096C122.985 10.104 123.145 10.108 123.265 10.108C123.449 10.108 123.577 10.076 123.649 10.012C123.721 9.948 123.757 9.84 123.757 9.688C123.757 9.488 123.729 9.308 123.673 9.148C123.625 8.988 123.553 8.848 123.457 8.728C123.361 8.6 123.245 8.492 123.109 8.404C122.877 8.244 122.585 8.128 122.233 8.056C121.881 7.976 121.501 7.936 121.093 7.936C120.589 7.936 120.113 7.992 119.665 8.104C119.217 8.208 118.789 8.316 118.381 8.428C117.973 8.532 117.573 8.584 117.181 8.584C116.549 8.584 116.061 8.48 115.717 8.272C115.373 8.064 115.201 7.74 115.201 7.3C115.201 6.876 115.353 6.5 115.657 6.172C115.961 5.836 116.377 5.556 116.905 5.332C117.441 5.108 118.045 4.94 118.717 4.828C119.389 4.708 120.089 4.648 120.817 4.648C122.305 4.648 123.557 4.816 124.573 5.152C125.589 5.488 126.361 6.048 126.889 6.832C127.417 7.616 127.681 8.688 127.681 10.048C127.681 10.384 127.665 10.68 127.633 10.936C127.601 11.192 127.561 11.416 127.513 11.608C127.473 11.792 127.437 11.956 127.405 12.1C127.373 12.244 127.357 12.376 127.357 12.496C127.357 12.712 127.429 12.92 127.573 13.12C127.717 13.32 127.885 13.528 128.077 13.744C128.269 13.952 128.437 14.18 128.581 14.428C128.725 14.668 128.797 14.94 128.797 15.244C128.797 15.7 128.653 16.032 128.365 16.24C128.077 16.448 127.745 16.552 127.369 16.552C127.065 16.552 126.817 16.468 126.625 16.3C126.441 16.14 126.277 15.98 126.133 15.82C125.989 15.652 125.829 15.568 125.653 15.568C125.533 15.568 125.397 15.604 125.245 15.676C125.101 15.748 124.925 15.856 124.717 16C124.477 16.168 124.161 16.36 123.769 16.576C123.385 16.8 122.905 16.992 122.329 17.152C121.753 17.312 121.053 17.392 120.229 17.392ZM120.601 14.812C120.969 14.812 121.325 14.76 121.669 14.656C122.013 14.544 122.325 14.392 122.605 14.2C122.893 14 123.121 13.768 123.289 13.504C123.457 13.232 123.541 12.94 123.541 12.628C123.541 12.404 123.469 12.24 123.325 12.136C123.181 12.024 122.957 11.952 122.653 11.92C122.357 11.88 121.981 11.86 121.525 11.86C121.037 11.86 120.573 11.912 120.133 12.016C119.701 12.112 119.349 12.28 119.077 12.52C118.805 12.752 118.669 13.076 118.669 13.492C118.669 13.796 118.749 14.044 118.909 14.236C119.077 14.428 119.305 14.572 119.593 14.668C119.881 14.764 120.217 14.812 120.601 14.812ZM133.247 20.944C132.727 20.944 132.307 20.804 131.987 20.524C131.667 20.244 131.507 19.904 131.507 19.504C131.507 19.08 131.643 18.712 131.915 18.4C132.195 18.096 132.583 17.844 133.079 17.644C133.455 17.444 133.847 17.224 134.255 16.984C134.663 16.744 135.043 16.492 135.395 16.228C135.747 15.972 136.031 15.724 136.247 15.484C136.463 15.236 136.571 15.012 136.571 14.812C136.571 14.644 136.447 14.456 136.199 14.248C135.959 14.04 135.535 13.796 134.927 13.516C134.439 13.284 133.967 13.004 133.511 12.676C133.063 12.34 132.643 11.976 132.251 11.584C131.859 11.192 131.519 10.776 131.231 10.336C130.943 9.896 130.715 9.452 130.547 9.004C130.387 8.548 130.307 8.1 130.307 7.66C130.307 7.268 130.399 6.912 130.583 6.592C130.767 6.264 131.023 6.008 131.351 5.824C131.679 5.632 132.051 5.536 132.467 5.536C133.083 5.536 133.603 5.664 134.027 5.92C134.451 6.168 134.827 6.584 135.155 7.168C135.467 7.904 135.779 8.588 136.091 9.22C136.403 9.844 136.727 10.368 137.063 10.792C137.247 11.032 137.443 11.236 137.651 11.404C137.867 11.572 138.047 11.656 138.191 11.656C138.415 11.656 138.623 11.556 138.815 11.356C139.015 11.156 139.171 10.932 139.283 10.684C139.595 10.14 139.883 9.524 140.147 8.836C140.419 8.14 140.687 7.48 140.951 6.856C141.199 6.432 141.495 6.084 141.839 5.812C142.191 5.532 142.611 5.392 143.099 5.392C143.875 5.392 144.415 5.584 144.719 5.968C145.023 6.352 145.175 6.852 145.175 7.468C145.175 7.924 145.095 8.432 144.935 8.992C144.775 9.552 144.559 10.136 144.287 10.744C144.023 11.344 143.723 11.94 143.387 12.532C143.051 13.116 142.703 13.668 142.343 14.188C141.991 14.708 141.647 15.168 141.311 15.568C140.743 16.256 140.131 16.92 139.475 17.56C138.819 18.208 138.143 18.788 137.447 19.3C136.751 19.812 136.047 20.212 135.335 20.5C134.631 20.796 133.935 20.944 133.247 20.944Z" fill="#EEF1F3"/>
</svg>
